<svg xmlns="http://www.w3.org/2000/svg" width="60" height="60" fill="none"><path fill="#fff" d="M30 59.508C13.729 59.508.492 46.271.492 30S13.729.492 30 .492 59.508 13.726 59.508 30 46.271 59.508 30 59.508ZM30 4.18C15.763 4.18 4.18 15.764 4.18 30S15.763 55.82 30 55.82 55.82 44.232 55.82 30C55.82 15.768 44.237 4.18 30 4.18Zm11.738 40.161-13.582-13.58V11.557h3.688v17.677l12.502 12.5-2.608 2.607Z"/><path fill="#fff" fill-rule="evenodd" d="M41.738 45.036 27.664 30.964V11.067h4.672V29.03l12.705 12.703-3.303 3.303Zm-9.894-15.802V11.557h-3.688v19.204l13.582 13.58 2.608-2.608-12.502-12.5ZM30 60C13.457 60 0 46.543 0 30S13.457 0 30 0s30 13.455 30 30-13.457 30-30 30Zm0-55.328C16.035 4.672 4.672 16.036 4.672 30c0 13.964 11.363 25.328 25.328 25.328S55.328 43.96 55.328 30C55.328 16.04 43.965 4.672 30 4.672ZM.492 30C.492 46.271 13.729 59.508 30 59.508S59.508 46.274 59.508 30 46.271.492 30 .492.492 13.729.492 30Zm3.688 0C4.18 15.764 15.763 4.18 30 4.18S55.82 15.768 55.82 30c0 14.232-11.583 25.82-25.82 25.82S4.18 44.236 4.18 30Z" clip-rule="evenodd"/></svg>