<svg xmlns="http://www.w3.org/2000/svg" width="83" height="83" fill="none"><g clip-path="url(#a)"><path fill="#FFDE40" d="M53.073 81.89C24.647 89.345-6.554 57.842 1.203 29.47 8.992 1.015 51.931-10.05 72.527 10.76c20.68 20.892 8.996 63.668-19.454 71.13Z"/><path fill="#21201F" fill-rule="evenodd" d="M42.794 21.427c-.887 2.443-.42 6.138 4.039 10.04l1.52 1.331a112.3 112.3 0 0 1 2.716-1.593c4.237-2.411 5.614-6.157 5.163-9.068-.44-2.84-2.63-5.214-6.562-5.214-3.27 0-5.938 1.924-6.876 4.504Zm1.641 13.922c-6.074 4.298-9.8 8.942-9.8 15.553 0 3.64 1.243 7.408 3.877 10.29 2.67 2.921 6.635 4.783 11.755 4.783 5.13 0 9.098-1.891 11.768-4.819 2.632-2.887 3.885-6.65 3.885-10.254 0-3.48-1.424-6.334-3.035-8.446-1.605-2.104-3.474-3.579-4.6-4.366l-1.845-1.288-2.577 3.69 1.845 1.288c.91.635 2.377 1.802 3.6 3.405 1.217 1.596 2.112 3.515 2.112 5.717 0 2.602-.91 5.249-2.71 7.222-1.763 1.933-4.496 3.35-8.443 3.35-3.958 0-6.682-1.401-8.434-3.318-1.787-1.956-2.697-4.599-2.697-7.254 0-5.935 4.142-10.086 14.158-15.786 5.714-3.25 8.146-8.749 7.385-13.667-.771-4.987-4.81-9.026-11.009-9.026-5.019 0-9.474 2.976-11.105 7.467-1.681 4.628-.163 10.178 5.304 14.964l.566.495ZM28.041 14.607a2.25 2.25 0 0 1 1.325 2.051v45.497l-2.25.001h-2.25V22.62a63.217 63.217 0 0 0-3.084 4.68 87.636 87.636 0 0 0-2.961 5.35l-.167.332-.04.084-.01.02-.002.003-.983 2.024-4.048-1.965.983-2.024 2.024.982-2.024-.982.005-.012.013-.027.049-.098.183-.366a92.078 92.078 0 0 1 3.122-5.64c1.984-3.299 4.766-7.42 7.7-10.01a2.25 2.25 0 0 1 2.415-.364Zm-3.175 49.799v-2.25h4.5v2.25h-4.5Zm51.158-43.198-.003 25.082h-4.5l.003-25.083h4.5Z" clip-rule="evenodd"/><path fill="#21201F" fill-rule="evenodd" d="M62.706 31.499h22.135v4.5H62.706v-4.5Z" clip-rule="evenodd"/></g><defs><clipPath id="a"><path fill="#fff" d="M0 0h83v83H0z"/></clipPath></defs></svg>