<svg width="112" height="112" viewBox="0 0 112 112" fill="none" xmlns="http://www.w3.org/2000/svg">
<path d="M72.5944 110.01C35.1847 119.821 -5.87739 78.3619 4.33175 41.0241C14.5813 3.57394 71.091 -10.9873 98.1964 16.4008C125.411 43.8954 110.035 100.189 72.5944 110.01Z" fill="#BFFFCD"/>
<path d="M46.0347 95.5329L44.8001 94.8693C37.4049 90.8869 0.498199 69.6291 0.498199 42.0469C0.498199 27.5221 10.5006 19.1043 20.4159 17.2061C26.1171 16.1132 32.4596 17.3271 39.7936 20.9102L37.5064 25.5861C31.225 22.5144 25.9453 21.4488 21.3917 22.3179C13.5854 23.8102 5.70238 30.4911 5.70238 42.0443C5.70238 65.4436 36.9678 84.5612 46.0347 89.6092C55.1017 84.5612 86.3671 65.4436 86.3671 42.0443C86.3671 30.4911 78.4841 23.8102 70.6778 22.3153C63.0147 20.8451 52.7585 25.0475 40.1592 34.8053L36.9782 30.6888C50.8018 19.9929 62.4786 15.4666 71.6536 17.2087C81.5689 19.1017 91.5713 27.5195 91.5713 42.0443C91.5713 69.6265 54.6646 90.8869 47.2694 94.8667L46.0347 95.5329ZM66.8515 55.4178H61.6473V47.6115H53.841V42.4073H61.6473V34.6011H66.8515V42.4073H74.6577V47.6115H66.8515V55.4178Z" fill="#21201F"/>
<path fill-rule="evenodd" clip-rule="evenodd" d="M46.0352 96.0987L44.5642 95.3082C40.8514 93.3087 29.7349 86.9759 19.5402 77.6761C9.36313 68.3924 0 56.0567 0 42.047C0 27.2481 10.2084 18.6531 20.3222 16.7169C26.1646 15.5969 32.6198 16.851 40.0122 20.4627L40.46 20.6814L37.735 26.2525L37.2875 26.0337C31.0567 22.9867 25.8915 21.9662 21.485 22.8073C13.8808 24.2609 6.20045 30.762 6.20045 42.0444C6.20045 53.5277 13.8827 64.0316 22.8079 72.344C31.5592 80.4945 41.4073 86.447 46.0347 89.0387C50.6621 86.447 60.5102 80.4945 69.2615 72.344C78.1866 64.0316 85.8689 53.5277 85.8689 42.0444C85.8689 30.762 78.1884 24.2608 70.5841 22.8046C66.8793 22.0938 62.5013 22.7463 57.4583 24.8109C52.417 26.8747 46.7426 30.3368 40.4642 35.1992L40.0699 35.5046L36.2796 30.5996L36.6733 30.2949C50.5205 19.5808 62.3495 14.9351 71.7465 16.7194C81.8605 18.6503 92.0694 27.2455 92.0694 42.0444C92.0694 56.054 82.7063 68.3904 72.5292 77.6745C62.3345 86.9746 51.2184 93.3072 47.5055 95.3055L46.0352 96.0987ZM47.2694 94.8668C54.6645 90.8869 91.5712 69.6265 91.5712 42.0444C91.5712 27.5195 81.5688 19.1018 71.6535 17.2088C62.566 15.4833 51.024 19.9073 37.3727 30.3848C37.283 30.4536 37.1933 30.5227 37.1034 30.5921C37.0617 30.6243 37.0199 30.6566 36.9781 30.6889L40.1586 34.8047C40.2316 34.7482 40.305 34.6926 40.3778 34.6364C52.8772 24.9991 63.059 20.8537 70.6778 22.3154C78.484 23.8103 86.3671 30.4911 86.3671 42.0444C86.3671 65.4437 55.1017 84.5612 46.0347 89.6093C36.9677 84.5612 5.70231 65.4437 5.70231 42.0444C5.70231 30.4911 13.5853 23.8103 21.3916 22.318C25.9453 21.4489 31.2249 22.5144 37.5063 25.5862L39.7936 20.9102C39.6437 20.837 39.4942 20.7647 39.3451 20.6935C32.2006 17.2785 26.0005 16.1356 20.4158 17.2062C10.5006 19.1044 0.498137 27.5221 0.498137 42.047C0.498137 69.6291 37.4049 90.8869 44.8 94.8694L46.0347 95.5329L47.2694 94.8668ZM67.3495 55.916H61.1491V48.1097H53.3428V41.9093H61.1491V34.103H67.3495V41.9093H75.1558V48.1097H67.3495V55.916ZM66.8514 42.4074V34.6011H61.6472V42.4074H53.841V47.6116H61.6472V55.4178H66.8514V47.6116H74.6577V42.4074H66.8514Z" fill="#21201F"/>
</svg>
