<svg xmlns="http://www.w3.org/2000/svg" width="60" height="60" fill="none"><path fill="#fff" d="m.694 20.635 8.655-8.731L.694 3.172 3.204.693l11.108 11.21L3.203 23.115l-2.509-2.48ZM11.97 40.992a10.968 10.968 0 0 1 3.336-7.931c2.37-2.31 5.704-3.532 9.637-3.532h12.394c6.479 0 9.43-4.116 9.43-7.94A7.46 7.46 0 0 0 44.5 16.19c-1.696-1.652-4.174-2.525-7.165-2.525H18.789V10.14h18.547c3.929 0 7.258 1.219 9.63 3.525a10.961 10.961 0 0 1 3.328 7.92c0 5.7-4.454 11.468-12.958 11.468H24.942c-6.487 0-9.441 4.115-9.441 7.938 0 3.823 2.956 7.943 9.44 7.943h15.1a8.811 8.811 0 0 1 3.416-5.336 8.83 8.83 0 0 1 11.774 1.188 8.806 8.806 0 0 1 0 11.82 8.827 8.827 0 0 1-11.774 1.188 8.811 8.811 0 0 1-3.416-5.335h-15.1c-8.517 0-12.972-5.769-12.972-11.468Zm42.014 9.705a5.283 5.283 0 0 0-3.268-4.885 5.3 5.3 0 0 0-5.77 1.147 5.285 5.285 0 0 0 3.744 9.026 5.304 5.304 0 0 0 3.741-1.55 5.29 5.29 0 0 0 1.553-3.738Z"/><path fill="#fff" fill-rule="evenodd" d="m0 20.639 8.658-8.736L0 3.168 3.207 0l11.795 11.903L3.207 23.807 0 20.639Zm9.349-8.735L.694 20.635l2.51 2.479 11.108-11.21L3.203.694.694 3.171l8.655 8.732Zm2.62 29.088a10.968 10.968 0 0 1 3.336-7.931c2.37-2.31 5.704-3.532 9.637-3.532h12.394c6.479 0 9.43-4.116 9.43-7.94A7.46 7.46 0 0 0 44.5 16.19c-1.696-1.652-4.174-2.525-7.165-2.525H18.789V10.14h18.547c3.929 0 7.258 1.219 9.63 3.525a10.961 10.961 0 0 1 3.328 7.92c0 5.7-4.454 11.468-12.958 11.468H24.942c-6.487 0-9.441 4.115-9.441 7.938 0 3.823 2.956 7.943 9.44 7.943h15.1a8.811 8.811 0 0 1 3.416-5.336 8.83 8.83 0 0 1 11.774 1.188 8.806 8.806 0 0 1 0 11.82 8.827 8.827 0 0 1-11.774 1.188 8.811 8.811 0 0 1-3.416-5.335h-15.1c-8.517 0-12.972-5.769-12.972-11.468Zm27.68 11.958H24.942c-8.784 0-13.463-5.983-13.464-11.957v.001M39.649 52.95a9.303 9.303 0 0 0 3.517 5.24 9.323 9.323 0 0 0 12.429-1.254 9.296 9.296 0 0 0 0-12.477 9.318 9.318 0 0 0-12.43-1.255 9.303 9.303 0 0 0-3.516 5.24H24.942c-3.134 0-5.365-.992-6.81-2.398a7.05 7.05 0 0 1-2.14-5.054c0-1.787.69-3.642 2.139-5.052 1.444-1.404 3.675-2.396 6.81-2.396h12.395c8.77 0 13.449-5.982 13.45-11.956a11.441 11.441 0 0 0-3.479-8.273c-2.48-2.412-5.94-3.664-9.971-3.664H18.298v4.505h19.038c2.898 0 5.24.845 6.822 2.386a6.978 6.978 0 0 1 2.116 5.044v.003a7.05 7.05 0 0 1-2.136 5.053c-1.443 1.405-3.671 2.396-6.802 2.396H24.942c-4.035 0-7.5 1.256-9.98 3.671a11.47 11.47 0 0 0-3.484 8.284m42.014 9.704a4.793 4.793 0 0 0-2.965-4.432 4.808 4.808 0 0 0-5.235 1.04 4.796 4.796 0 0 0 3.396 8.19 4.813 4.813 0 0 0 3.395-1.407 4.8 4.8 0 0 0 1.409-3.39Zm.49 0a5.283 5.283 0 0 0-3.267-4.885 5.3 5.3 0 0 0-5.77 1.147 5.285 5.285 0 0 0 3.744 9.026 5.304 5.304 0 0 0 3.741-1.55 5.29 5.29 0 0 0 1.553-3.738Z" clip-rule="evenodd"/></svg>