<svg xmlns="http://www.w3.org/2000/svg" width="362" height="112" fill="none"><mask id="b" width="112" height="112" x="250" y="0" maskUnits="userSpaceOnUse" style="mask-type:alpha"><path fill="#C4C4C4" fill-rule="evenodd" d="M322.952 0c11.244 0 16.865 0 22.917 1.913a23.79 23.79 0 0 1 14.218 14.218C362 22.183 362 27.805 362 39.048v33.904c0 11.244 0 16.865-1.913 22.917a23.789 23.789 0 0 1-14.218 14.217C339.817 112 334.196 112 322.952 112h-33.904c-11.244 0-16.865 0-22.917-1.914a23.789 23.789 0 0 1-14.218-14.217C250 89.817 250 84.196 250 72.952V39.048c0-11.243 0-16.866 1.913-22.917a23.79 23.79 0 0 1 14.218-14.218C272.183 0 277.804 0 289.048 0h33.904Z" clip-rule="evenodd"/></mask><g clip-path="url(#a)" mask="url(#b)"><path fill="#F1F0ED" d="M250 0h112v112H250V0Z"/><path stroke="#000" stroke-linecap="round" stroke-opacity=".15" stroke-width="2.333" d="M242.298 96.833h91"/><path fill="#42413E" fill-rule="evenodd" d="M274.732 73.733c0-12.371-5.372-22.4-12-22.4h-6.666c-6.185.002-11.198 10.03-11.198 22.4 0 12.371 5.014 22.4 11.2 22.4h6.664c6.628 0 12-10.029 12-22.4Z" clip-rule="evenodd"/><ellipse fill="#EDECE8" rx="5.6" ry="11.2" transform="matrix(-1 0 0 1 254.2 73.734)"/><path fill="#5C5A57" d="M302.5 74.667h3.5v10.5h-36.167c-5.799 0-10.5-4.701-10.5-10.5H302.5Z"/><path fill="#21201F" d="M317.667 51.333h-16.334l-11.666 23.334c0 5.799 4.701 10.5 10.5 10.5h17.5V51.333Z"/><path fill="#FCB900" d="M313.547-20.558a7.583 7.583 0 1 0-15.097 1.45l15.097-1.45Zm6.444 67.13-6.444-67.13-15.097 1.45 6.444 67.13 15.097-1.45Z"/><path stroke="#FAF9F7" stroke-linecap="round" stroke-width="5.833" d="m313.233 34.765-4.317-45.538"/><path fill="#42413E" fill-rule="evenodd" d="M330.732 73.733c0-12.371-5.372-22.4-12-22.4h-6.666c-6.185.002-11.198 10.03-11.198 22.4 0 12.371 5.014 22.4 11.2 22.4h6.664c6.628 0 12-10.029 12-22.4Z" clip-rule="evenodd"/><ellipse fill="#EDECE8" rx="5.6" ry="11.2" transform="matrix(-1 0 0 1 310.198 73.734)"/><path fill="#FCB900" d="M255.833 70a3.5 3.5 0 1 0 0 7v-7ZM302.5 47.833v-3.5h-2.078l-.995 1.824 3.073 1.676Zm18.667 3.5a3.5 3.5 0 1 0 0-7v7ZM287.852 73.38l-1.106-3.32 1.106 3.32Zm1.709-1.826 3.073 1.676-3.073-1.676Zm-.856 1.32 2.386 2.56-2.386-2.56ZM255.833 77h30.451v-7h-30.451v7Zm36.801-3.77 12.939-23.72-6.146-3.353-12.938 23.721 6.145 3.352Zm9.866-21.897h18.667v-7H302.5v7ZM286.284 77c.563 0 1.648.043 2.674-.299l-2.212-6.641c.214-.071.354-.073.278-.069a5.264 5.264 0 0 1-.247.007c-.132.002-.286.002-.493.002v7Zm.205-7.122c-.1.183-.173.318-.238.433a6.206 6.206 0 0 1-.124.213c-.041.064.028-.057.193-.21l4.771 5.12c.791-.736 1.273-1.71 1.543-2.204l-6.145-3.352Zm2.469 6.823a5.836 5.836 0 0 0 2.133-1.266l-4.771-5.122c.122-.114.268-.2.426-.253l2.212 6.641Z"/></g><mask id="c" width="112" height="112" x="0" y="0" maskUnits="userSpaceOnUse" style="mask-type:alpha"><path fill="#C4C4C4" fill-rule="evenodd" d="M72.952 0C84.196 0 89.817 0 95.87 1.913a23.79 23.79 0 0 1 14.218 14.218C112 22.183 112 27.805 112 39.048v33.904c0 11.244 0 16.865-1.913 22.917a23.789 23.789 0 0 1-14.218 14.217C89.817 112 84.196 112 72.952 112H39.048c-11.244 0-16.866 0-22.917-1.914A23.786 23.786 0 0 1 1.913 95.869C0 89.817 0 84.196 0 72.952V39.048C0 27.805 0 22.182 1.913 16.13A23.787 23.787 0 0 1 16.131 1.913C22.183 0 27.804 0 39.048 0h33.904Z" clip-rule="evenodd"/></mask><g mask="url(#c)"><path fill="url(#d)" d="M.001 56h56.001v56.001H.001z"/><path fill="url(#e)" d="M56.002 56.001h56.001v56.001H56.002z"/><path fill="url(#f)" d="M0 0h112.002v56.001H0z"/></g><path fill="#21201F" fill-rule="evenodd" d="M216.159 58.699H141v-6h75.159v6Z" clip-rule="evenodd"/><path fill="#21201F" fill-rule="evenodd" d="M211.916 55.698 193.46 37.243 197.703 33l22.698 22.698-22.698 22.698-4.243-4.242 18.456-18.456Z" clip-rule="evenodd"/><defs><linearGradient id="d" x1="87.914" x2="113.236" y1="5.755" y2="113.553" gradientUnits="userSpaceOnUse"><stop stop-color="#FEFEFE"/><stop offset=".27" stop-color="#F9F8F7"/><stop offset="1" stop-color="#EAE3CF"/></linearGradient><linearGradient id="f" x1="0" x2="82.3" y1="0" y2="180.193" gradientUnits="userSpaceOnUse"><stop stop-color="#FCE000"/><stop offset=".472" stop-color="#FAAA00"/><stop offset="1" stop-color="#FCE000"/></linearGradient><radialGradient id="e" cx="0" cy="0" r="1" gradientTransform="rotate(-87.02 123.645 40.11) scale(131.58)" gradientUnits="userSpaceOnUse"><stop offset=".404" stop-color="#302F28"/><stop offset=".566" stop-color="#282724"/><stop offset=".689" stop-color="#272623"/><stop offset=".891" stop-color="#242321"/></radialGradient><clipPath id="a"><path fill="#fff" d="M250 0h112v112H250V0Z"/></clipPath></defs></svg>