<svg xmlns="http://www.w3.org/2000/svg" width="760" height="286" fill="none"><path fill="#fff" d="M78.762 139.144c-16.089 0-30.055-2.74-41.9-8.221-11.669-5.481-20.774-13.436-27.315-23.867C3.182 96.625 0 84.161 0 69.664 0 55.167 3.182 42.79 9.547 32.537 16.088 22.107 25.193 14.151 36.86 8.67 48.707 3.19 62.498.45 78.231.45c11.845 0 21.304 1.06 28.376 3.181 7.071 2.122 12.464 4.332 16.176 6.63V48.45c-4.773-2.829-9.989-5.127-15.646-6.895-5.657-1.945-12.464-2.917-20.42-2.917-10.077 0-17.944 2.651-23.602 7.955-5.48 5.127-8.22 12.818-8.22 23.072 0 6.895 1.237 12.64 3.712 17.237 2.652 4.597 6.365 8.044 11.138 10.343 4.95 2.298 10.784 3.447 17.503 3.447 7.425 0 13.966-.795 19.624-2.386 5.834-1.592 11.138-3.978 15.911-7.16v38.187c-3.359 2.298-8.663 4.508-15.911 6.63-7.249 2.121-16.619 3.182-28.11 3.182ZM190.385 38.637c-10.608 0-20.243 1.06-28.906 3.182-8.486 2.121-15.735 4.42-21.746 6.895V10.26c7.602-3.005 16.707-5.392 27.315-7.16 10.607-1.767 21.48-2.65 32.618-2.65 13.79 0 25.724 1.768 35.801 5.304 10.077 3.36 17.768 8.928 23.072 16.707 5.48 7.602 8.22 17.768 8.22 30.497v62.054c0 3.006.089 6.807.266 11.404.176 4.42.442 7.779.795 10.077h-50.121a421.907 421.907 0 0 1-1.856-10.077c-.53-4.067-.972-7.868-1.326-11.404l-1.061-14.055V56.404c0-5.127-1.061-8.928-3.182-11.403-2.122-2.652-4.95-4.331-8.486-5.038-3.536-.884-7.337-1.326-11.403-1.326Zm23.071 48.53 7.426 14.055c-.177 1.944-.973 5.038-2.387 9.281-1.415 4.066-3.801 8.31-7.16 12.729-3.359 4.42-8.044 8.221-14.055 11.404-6.011 3.005-13.79 4.508-23.337 4.508-7.602 0-14.674-1.238-21.215-3.713-6.542-2.652-11.846-6.718-15.912-12.199-4.066-5.657-6.099-12.906-6.099-21.745 0-14.497 6.011-25.812 18.033-33.945 12.198-8.309 30.762-12.464 55.69-12.464h13.259v24.663h-13.524c-7.779 0-13.26 1.415-16.442 4.243-3.183 2.652-4.774 6.011-4.774 10.077 0 4.067 1.238 7.249 3.713 9.547 2.652 2.299 5.923 3.448 9.812 3.448 3.359 0 6.099-.619 8.221-1.857 2.298-1.414 4.066-3.093 5.304-5.038a23.703 23.703 0 0 0 2.652-6.63c.53-2.298.795-4.42.795-6.365Zm196.47 49.325V66.747l-26.254 63.38h-34.74l-24.928-63.645v70.01h-42.43V3.102h63.645l25.193 64.44 27.315-64.44h64.441l.796 133.39h-53.038Zm140.011-35.801c4.243 0 8.044-1.149 11.403-3.447 3.359-2.299 6.011-5.746 7.955-10.343 1.945-4.596 2.918-10.342 2.918-17.237 0-6.895-.973-12.64-2.918-17.238-1.944-4.596-4.596-7.955-7.955-10.077-3.359-2.298-7.16-3.447-11.403-3.447-4.067 0-7.868 1.149-11.404 3.447-3.359 2.122-6.011 5.48-7.955 10.078-1.768 4.596-2.652 10.342-2.652 17.237 0 6.895.884 12.64 2.652 17.237 1.944 4.597 4.596 8.044 7.955 10.343 3.536 2.298 7.337 3.447 11.404 3.447Zm0 38.453c-13.967 0-26.785-2.564-38.453-7.691-11.492-5.304-20.685-13.082-27.58-23.336-6.895-10.431-10.342-23.249-10.342-38.453 0-15.028 3.447-27.668 10.342-37.922 6.895-10.431 16.088-18.21 27.58-23.337C522.976 3.1 535.705.449 549.671.449c14.144 0 27.05 2.652 38.718 7.956 11.669 5.127 20.862 12.906 27.58 23.337 6.895 10.254 10.342 22.894 10.342 37.922 0 15.204-3.447 28.022-10.342 38.453-6.718 10.254-15.911 18.032-27.58 23.336-11.491 5.127-24.309 7.691-38.452 7.691Zm88.145-62.585V40.228h121.192v36.33H638.082ZM5.834 149.056h53.038v133.391H5.834V149.056Zm150.894 133.391H96.264l-39.513-65.768 44.552-67.623h49.325l-42.961 66.297-8.22-23.867 57.281 90.961ZM36.861 236.303V197.32H89.9v38.983H36.86Z"/><path fill="#fff" d="M208.772 184.591c-10.608 0-20.243 1.061-28.906 3.183-8.486 2.121-15.735 4.419-21.746 6.895v-38.453c7.603-3.006 16.707-5.392 27.315-7.16 10.608-1.768 21.481-2.652 32.619-2.652 13.789 0 25.723 1.768 35.8 5.304 10.077 3.359 17.768 8.928 23.072 16.707 5.48 7.602 8.221 17.767 8.221 30.497v62.054c0 3.006.088 6.807.265 11.403.177 4.42.442 7.779.795 10.078h-50.121a421.182 421.182 0 0 1-1.856-10.078c-.53-4.066-.972-7.867-1.326-11.403l-1.061-14.055v-44.552c0-5.127-1.06-8.928-3.182-11.403-2.121-2.652-4.95-4.332-8.486-5.039-3.536-.884-7.337-1.326-11.403-1.326Zm23.071 48.53 7.426 14.055c-.177 1.945-.973 5.039-2.387 9.282-1.414 4.066-3.801 8.309-7.16 12.729s-8.044 8.221-14.055 11.403c-6.011 3.006-13.79 4.508-23.337 4.508-7.602 0-14.674-1.237-21.215-3.712-6.542-2.652-11.845-6.718-15.912-12.199-4.066-5.657-6.099-12.906-6.099-21.746 0-14.497 6.011-25.811 18.033-33.944 12.199-8.309 30.762-12.464 55.69-12.464h13.259v24.663h-13.524c-7.779 0-13.26 1.414-16.442 4.243-3.182 2.652-4.773 6.011-4.773 10.077s1.237 7.249 3.712 9.547c2.652 2.298 5.923 3.447 9.812 3.447 3.359 0 6.1-.618 8.221-1.856 2.298-1.414 4.066-3.094 5.304-5.039a23.693 23.693 0 0 0 2.652-6.629c.53-2.299.795-4.42.795-6.365Zm95.495-78.761h53.038v128.087h-53.038V154.36Zm-37.658-5.304h128.618v38.983H289.68v-38.983Zm199.729 98.12c5.127 0 9.016-1.061 11.668-3.182 2.652-2.122 3.978-5.569 3.978-10.342 0-4.774-1.149-8.31-3.447-10.608-2.299-2.298-6.365-3.448-12.199-3.448h-15.116v-35.27h22.541c19.624 0 34.74 4.332 45.348 12.994 10.607 8.663 15.911 20.332 15.911 35.006 0 10.43-2.652 19.358-7.955 26.784-5.128 7.425-12.288 13.171-21.481 17.237-9.016 4.066-19.447 6.1-31.292 6.1h-23.072v-35.271h15.116Zm-9.547-98.12v133.391h-53.038V149.056h53.038Zm138.96 0v133.391h-53.038V149.056h53.038Z"/></svg>